<?xml version="1.0" standalone="no"?>
<!DOCTYPE svg PUBLIC "-//W3C//DTD SVG 20010904//EN"
 "http://www.w3.org/TR/2001/REC-SVG-20010904/DTD/svg10.dtd">
<svg version="1.0" xmlns="http://www.w3.org/2000/svg"
 width="482.000000pt" height="482.000000pt" viewBox="0 0 482.000000 482.000000"
 preserveAspectRatio="xMidYMid meet">
<metadata>
Created by potrace 1.11, written by Peter Selinger 2001-2013
</metadata>
<g transform="translate(0.000000,482.000000) scale(0.100000,-0.100000)"
fill="#000000" stroke="none">
<path d="M2225 4413 c-206 -49 -399 -209 -491 -408 -47 -102 -64 -182 -64
-306 0 -205 70 -377 212 -518 145 -145 317 -215 523 -214 204 0 378 74 521
220 393 403 202 1084 -344 1224 -91 23 -266 24 -357 2z"/>
<path d="M34 3513 c34 -528 243 -990 621 -1368 49 -50 127 -121 173 -157 l82
-67 -87 -62 c-345 -244 -603 -569 -727 -914 -56 -157 -96 -359 -96 -487 l0
-68 610 0 610 0 0 49 c0 117 56 285 135 406 56 87 199 225 301 291 400 261
960 285 1391 59 302 -157 503 -427 532 -711 5 -47 11 -87 13 -89 2 -3 274 -5
604 -5 l599 0 -1 107 c-1 189 -51 382 -154 599 -141 297 -354 544 -662 765
l-76 56 56 44 c118 91 214 183 312 297 316 368 486 781 516 1255 l6 107 -604
0 -605 0 -6 -92 c-11 -162 -71 -331 -171 -482 -61 -92 -199 -230 -293 -294
-130 -88 -308 -161 -468 -193 -94 -19 -378 -18 -470 0 -176 35 -376 123 -506
221 -97 72 -227 214 -283 308 -87 147 -145 333 -146 475 l0 57 -606 0 -606 0
6 -107z"/>
</g>
</svg>
